<svg width="22" height="22" viewBox="0 0 22 22" fill="none" xmlns="http://www.w3.org/2000/svg">
<path fill-rule="evenodd" clip-rule="evenodd" d="M12.8333 16.4999C12.8333 17.5124 12.0125 18.3333 11 18.3333C9.98748 18.3333 9.16665 17.5124 9.16665 16.4999H12.8333ZM11 1.83325C7.4525 1.83325 4.58335 5.1149 4.58335 9.1666V11.2658L2.75 16.4999H7.33335C7.33335 18.525 8.97497 20.1666 11 20.1666C13.025 20.1666 14.6667 18.525 14.6667 16.4999H19.25L17.4167 11.2658V9.4324C17.4167 5.95825 15.3908 2.7774 12.4208 2.0991C11.9598 1.95316 11.4826 1.86389 11 1.83325ZM5.335 14.6666L6.31585 11.9166L6.41665 11.5774V9.1666C6.41665 6.1324 8.47 3.6666 11 3.6666C11.3306 3.66603 11.66 3.70604 11.9808 3.78575C14.0342 4.2899 15.5833 6.70075 15.5833 9.3866V11.5774L15.6842 11.8708L16.665 14.6666H5.335Z" fill="#222222"/>
</svg>
