<svg width="24" height="24" viewBox="0 0 24 24" fill="none" xmlns="http://www.w3.org/2000/svg">
<path d="M18.6437 2.57129C19.3825 2.57129 20.0911 2.86478 20.6135 3.38721C21.1359 3.90963 21.4294 4.61819 21.4294 5.357V18.6427C21.4294 19.3815 21.1359 20.0901 20.6135 20.6125C20.0911 21.1349 19.3825 21.4284 18.6437 21.4284H5.35798C4.61916 21.4284 3.91061 21.1349 3.38818 20.6125C2.86576 20.0901 2.57227 19.3815 2.57227 18.6427V5.357C2.57227 4.61819 2.86576 3.90963 3.38818 3.38721C3.91061 2.86478 4.61916 2.57129 5.35798 2.57129H18.6437ZM20.1437 8.14529H3.85798V18.6427C3.85798 19.4707 4.52998 20.1427 5.35798 20.1427H18.6437C19.0415 20.1427 19.423 19.9847 19.7044 19.7034C19.9857 19.4221 20.1437 19.0405 20.1437 18.6427V8.14529ZM7.49998 15.0007C7.78414 15.0007 8.05666 15.1136 8.25759 15.3145C8.45853 15.5155 8.57141 15.788 8.57141 16.0721C8.57141 16.3563 8.45853 16.6288 8.25759 16.8298C8.05666 17.0307 7.78414 17.1436 7.49998 17.1436C7.21582 17.1436 6.9433 17.0307 6.74237 16.8298C6.54143 16.6288 6.42855 16.3563 6.42855 16.0721C6.42855 15.788 6.54143 15.5155 6.74237 15.3145C6.9433 15.1136 7.21582 15.0007 7.49998 15.0007ZM12.0034 15.0007C12.2876 15.0007 12.5601 15.1136 12.761 15.3145C12.962 15.5155 13.0748 15.788 13.0748 16.0721C13.0748 16.3563 12.962 16.6288 12.761 16.8298C12.5601 17.0307 12.2876 17.1436 12.0034 17.1436C11.7192 17.1436 11.4467 17.0307 11.2458 16.8298C11.0449 16.6288 10.932 16.3563 10.932 16.0721C10.932 15.788 11.0449 15.5155 11.2458 15.3145C11.4467 15.1136 11.7192 15.0007 12.0034 15.0007ZM7.49998 10.715C7.78414 10.715 8.05666 10.8279 8.25759 11.0288C8.45853 11.2297 8.57141 11.5023 8.57141 11.7864C8.57141 12.0706 8.45853 12.3431 8.25759 12.544C8.05666 12.745 7.78414 12.8579 7.49998 12.8579C7.21582 12.8579 6.9433 12.745 6.74237 12.544C6.54143 12.3431 6.42855 12.0706 6.42855 11.7864C6.42855 11.5023 6.54143 11.2297 6.74237 11.0288C6.9433 10.8279 7.21582 10.715 7.49998 10.715ZM12.0034 10.715C12.2876 10.715 12.5601 10.8279 12.761 11.0288C12.962 11.2297 13.0748 11.5023 13.0748 11.7864C13.0748 12.0706 12.962 12.3431 12.761 12.544C12.5601 12.745 12.2876 12.8579 12.0034 12.8579C11.7192 12.8579 11.4467 12.745 11.2458 12.544C11.0449 12.3431 10.932 12.0706 10.932 11.7864C10.932 11.5023 11.0449 11.2297 11.2458 11.0288C11.4467 10.8279 11.7192 10.715 12.0034 10.715ZM16.5077 10.715C16.7919 10.715 17.0644 10.8279 17.2653 11.0288C17.4662 11.2297 17.5791 11.5023 17.5791 11.7864C17.5791 12.0706 17.4662 12.3431 17.2653 12.544C17.0644 12.745 16.7919 12.8579 16.5077 12.8579C16.2235 12.8579 15.951 12.745 15.7501 12.544C15.5491 12.3431 15.4363 12.0706 15.4363 11.7864C15.4363 11.5023 15.5491 11.2297 15.7501 11.0288C15.951 10.8279 16.2235 10.715 16.5077 10.715ZM18.6437 3.857H5.35798C4.96016 3.857 4.57862 4.01504 4.29732 4.29634C4.01602 4.57765 3.85798 4.95918 3.85798 5.357V6.85958H20.1437V5.357C20.1437 4.95918 19.9857 4.57765 19.7044 4.29634C19.423 4.01504 19.0415 3.857 18.6437 3.857Z" fill="#999999"/>
</svg>
