<svg width="24" height="24" viewBox="0 0 24 24" fill="none" xmlns="http://www.w3.org/2000/svg">
<path fill-rule="evenodd" clip-rule="evenodd" d="M5.49237 3.00008L5.42268 3.00004C5.10637 2.99974 4.8337 2.99948 4.59214 3.05748C3.83273 3.23979 3.23979 3.83273 3.05748 4.59214C2.99948 4.8337 2.99974 5.10637 3.00004 5.42268L3.00008 5.49237V8.81542L3.00004 8.88511C2.99974 9.20142 2.99948 9.4741 3.05748 9.71565C3.23979 10.4751 3.83273 11.068 4.59214 11.2503C4.8337 11.3083 5.10637 11.3081 5.42268 11.3077L5.49237 11.3077H8.81542L8.88511 11.3077C9.20142 11.3081 9.4741 11.3083 9.71565 11.2503C10.4751 11.068 11.068 10.4751 11.2503 9.71565C11.3083 9.4741 11.3081 9.20142 11.3077 8.88511L11.3077 8.81542V5.49237L11.3077 5.42268C11.3081 5.10637 11.3083 4.8337 11.2503 4.59214C11.068 3.83273 10.4751 3.23979 9.71565 3.05748C9.4741 2.99948 9.20142 2.99974 8.88511 3.00004L8.81542 3.00008H5.49237ZM4.91538 4.40382C4.97497 4.38951 5.06622 4.38469 5.49237 4.38469H8.81542C9.24159 4.38469 9.33283 4.38951 9.39241 4.40382C9.64556 4.46459 9.8432 4.66223 9.90398 4.91538C9.91829 4.97497 9.9231 5.06622 9.9231 5.49237V8.81542C9.9231 9.24159 9.91829 9.33283 9.90398 9.39241C9.8432 9.64556 9.64556 9.8432 9.39241 9.90398C9.33283 9.91829 9.24159 9.9231 8.81542 9.9231H5.49237C5.06622 9.9231 4.97497 9.91829 4.91538 9.90398C4.66223 9.8432 4.46459 9.64556 4.40382 9.39241C4.38951 9.33283 4.38469 9.24159 4.38469 8.81542V5.49237C4.38469 5.06622 4.38951 4.97497 4.40382 4.91538C4.46459 4.66223 4.66223 4.46459 4.91538 4.40382ZM15.1846 3.00008L15.1149 3.00004C14.7986 2.99974 14.5259 2.99948 14.2844 3.05748C13.525 3.23979 12.932 3.83273 12.7497 4.59214C12.6917 4.8337 12.692 5.10637 12.6923 5.42268L12.6923 5.49237V8.81542L12.6923 8.88511C12.692 9.20142 12.6917 9.4741 12.7497 9.71565C12.932 10.4751 13.525 11.068 14.2844 11.2503C14.5259 11.3083 14.7986 11.3081 15.1149 11.3077L15.1846 11.3077H18.5076L18.5773 11.3077C18.8937 11.3081 19.1663 11.3083 19.4079 11.2503C20.1672 11.068 20.7603 10.4751 20.9426 9.71565C21.0005 9.4741 21.0004 9.20142 20.9999 8.88511V8.81542V5.49237V5.42268C21.0004 5.10637 21.0005 4.8337 20.9426 4.59214C20.7603 3.83273 20.1672 3.23979 19.4079 3.05748C19.1663 2.99948 18.8937 2.99974 18.5773 3.00004L18.5076 3.00008H15.1846ZM14.6076 4.40382C14.6672 4.38951 14.7584 4.38469 15.1846 4.38469H18.5076C18.9338 4.38469 19.0251 4.38951 19.0846 4.40382C19.3377 4.46459 19.5354 4.66223 19.5962 4.91538C19.6105 4.97497 19.6153 5.06622 19.6153 5.49237V8.81542C19.6153 9.24159 19.6105 9.33283 19.5962 9.39241C19.5354 9.64556 19.3377 9.8432 19.0846 9.90398C19.0251 9.91829 18.9338 9.9231 18.5076 9.9231H15.1846C14.7584 9.9231 14.6672 9.91829 14.6076 9.90398C14.3545 9.8432 14.1568 9.64556 14.0961 9.39241C14.0817 9.33283 14.0769 9.24159 14.0769 8.81542V5.49237C14.0769 5.06622 14.0817 4.97497 14.0961 4.91538C14.1568 4.66223 14.3545 4.46459 14.6076 4.40382ZM5.42268 12.6923L5.49237 12.6923H8.81542L8.88511 12.6923C9.20142 12.692 9.4741 12.6917 9.71565 12.7497C10.4751 12.932 11.068 13.525 11.2503 14.2844C11.3083 14.5259 11.3081 14.7986 11.3077 15.1149L11.3077 15.1846V18.5076L11.3077 18.5773C11.3081 18.8937 11.3083 19.1663 11.2503 19.4079C11.068 20.1672 10.4751 20.7603 9.71565 20.9426C9.4741 21.0005 9.20142 21.0004 8.88511 20.9999H8.81542H5.49237H5.42268C5.10637 21.0004 4.8337 21.0005 4.59214 20.9426C3.83273 20.7603 3.23979 20.1672 3.05748 19.4079C2.99948 19.1663 2.99974 18.8937 3.00004 18.5773L3.00008 18.5076V15.1846L3.00004 15.1149C2.99974 14.7986 2.99948 14.5259 3.05748 14.2844C3.23979 13.525 3.83273 12.932 4.59214 12.7497C4.8337 12.6917 5.10637 12.692 5.42268 12.6923ZM5.49237 14.0769C5.06622 14.0769 4.97497 14.0817 4.91538 14.0961C4.66223 14.1568 4.46459 14.3545 4.40382 14.6076C4.38951 14.6672 4.38469 14.7584 4.38469 15.1846V18.5076C4.38469 18.9338 4.38951 19.0251 4.40382 19.0846C4.46459 19.3377 4.66223 19.5354 4.91538 19.5962C4.97497 19.6105 5.06622 19.6153 5.49237 19.6153H8.81542C9.24159 19.6153 9.33283 19.6105 9.39241 19.5962C9.64556 19.5354 9.8432 19.3377 9.90398 19.0846C9.91829 19.0251 9.9231 18.9338 9.9231 18.5076V15.1846C9.9231 14.7584 9.91829 14.6672 9.90398 14.6076C9.8432 14.3545 9.64556 14.1568 9.39241 14.0961C9.33283 14.0817 9.24159 14.0769 8.81542 14.0769H5.49237ZM15.1846 12.6923L15.1149 12.6923C14.7986 12.692 14.5259 12.6917 14.2844 12.7497C13.525 12.932 12.932 13.525 12.7497 14.2844C12.6917 14.5259 12.692 14.7986 12.6923 15.1149L12.6923 15.1846V18.5076L12.6923 18.5773C12.692 18.8937 12.6917 19.1663 12.7497 19.4079C12.932 20.1672 13.525 20.7603 14.2844 20.9426C14.5259 21.0005 14.7986 21.0004 15.1149 20.9999H15.1846H18.5076H18.5773C18.8937 21.0004 19.1663 21.0005 19.4079 20.9426C20.1672 20.7603 20.7603 20.1672 20.9426 19.4079C21.0005 19.1663 21.0004 18.8937 20.9999 18.5773V18.5076V15.1846V15.1149C21.0004 14.7986 21.0005 14.5259 20.9426 14.2844C20.7603 13.525 20.1672 12.932 19.4079 12.7497C19.1663 12.6917 18.8937 12.692 18.5773 12.6923L18.5076 12.6923H15.1846ZM14.6076 14.0961C14.6672 14.0817 14.7584 14.0769 15.1846 14.0769H18.5076C18.9338 14.0769 19.0251 14.0817 19.0846 14.0961C19.3377 14.1568 19.5354 14.3545 19.5962 14.6076C19.6105 14.6672 19.6153 14.7584 19.6153 15.1846V18.5076C19.6153 18.9338 19.6105 19.0251 19.5962 19.0846C19.5354 19.3377 19.3377 19.5354 19.0846 19.5962C19.0251 19.6105 18.9338 19.6153 18.5076 19.6153H15.1846C14.7584 19.6153 14.6672 19.6105 14.6076 19.5962C14.3545 19.5354 14.1568 19.3377 14.0961 19.0846C14.0817 19.0251 14.0769 18.9338 14.0769 18.5076V15.1846C14.0769 14.7584 14.0817 14.6672 14.0961 14.6076C14.1568 14.3545 14.3545 14.1568 14.6076 14.0961Z" fill="#999999"/>
</svg>
