<svg width="26" height="26" viewBox="0 0 26 26" fill="none" xmlns="http://www.w3.org/2000/svg">
<path d="M4.33334 19.5C4.02639 19.5 3.76928 19.396 3.562 19.188C3.35473 18.98 3.25073 18.7229 3.25 18.4167C3.24928 18.1104 3.35328 17.8533 3.562 17.6453C3.77073 17.4373 4.02784 17.3333 4.33334 17.3333H21.6667C21.9736 17.3333 22.2311 17.4373 22.4391 17.6453C22.6471 17.8533 22.7507 18.1104 22.75 18.4167C22.7493 18.7229 22.6453 18.9804 22.438 19.1891C22.2307 19.3978 21.9736 19.5014 21.6667 19.5H4.33334ZM4.33334 14.0833C4.02639 14.0833 3.76928 13.9793 3.562 13.7713C3.35473 13.5633 3.25073 13.3062 3.25 13C3.24928 12.6938 3.35328 12.4367 3.562 12.2287C3.77073 12.0207 4.02784 11.9167 4.33334 11.9167H21.6667C21.9736 11.9167 22.2311 12.0207 22.4391 12.2287C22.6471 12.4367 22.7507 12.6938 22.75 13C22.7493 13.3062 22.6453 13.5637 22.438 13.7724C22.2307 13.9811 21.9736 14.0848 21.6667 14.0833H4.33334ZM4.33334 8.66667C4.02639 8.66667 3.76928 8.56267 3.562 8.35467C3.35473 8.14667 3.25073 7.88956 3.25 7.58333C3.24928 7.27711 3.35328 7.02 3.562 6.812C3.77073 6.604 4.02784 6.5 4.33334 6.5H21.6667C21.9736 6.5 22.2311 6.604 22.4391 6.812C22.6471 7.02 22.7507 7.27711 22.75 7.58333C22.7493 7.88956 22.6453 8.14703 22.438 8.35575C22.2307 8.56447 21.9736 8.66811 21.6667 8.66667H4.33334Z" fill="white"/>
</svg>
