<svg width="22" height="22" viewBox="0 0 22 22" fill="none" xmlns="http://www.w3.org/2000/svg">
<path d="M18.241 11.6049C18.094 11.4377 18.013 11.2226 18.013 10.9999C18.013 10.7773 18.094 10.5622 18.241 10.3949L19.4143 9.07494C19.5436 8.93072 19.6239 8.74926 19.6437 8.55658C19.6634 8.3639 19.6217 8.16991 19.5243 8.00244L17.691 4.83078C17.5947 4.66351 17.448 4.53091 17.2719 4.45191C17.0957 4.3729 16.8992 4.35151 16.7102 4.39078L14.9868 4.73911C14.7676 4.78442 14.5393 4.7479 14.3451 4.63644C14.1509 4.52499 14.0042 4.3463 13.9327 4.13411L13.3735 2.45661C13.312 2.27454 13.1948 2.1164 13.0386 2.00455C12.8823 1.8927 12.6948 1.83278 12.5027 1.83328H8.836C8.63611 1.82284 8.43829 1.87813 8.27277 1.99068C8.10725 2.10324 7.98312 2.26688 7.91934 2.45661L7.406 4.13411C7.3345 4.3463 7.18781 4.52499 6.99361 4.63644C6.7994 4.7479 6.57112 4.78442 6.35183 4.73911L4.58267 4.39078C4.40351 4.36546 4.22086 4.39373 4.05774 4.47203C3.89461 4.55033 3.75831 4.67515 3.666 4.83078L1.83267 8.00244C1.7329 8.16804 1.68804 8.36094 1.7045 8.55357C1.72097 8.74619 1.79791 8.92868 1.92434 9.07494L3.0885 10.3949C3.23546 10.5622 3.31651 10.7773 3.31651 10.9999C3.31651 11.2226 3.23546 11.4377 3.0885 11.6049L1.92434 12.9249C1.79791 13.0712 1.72097 13.2537 1.7045 13.4463C1.68804 13.6389 1.7329 13.8318 1.83267 13.9974L3.666 17.1691C3.76234 17.3364 3.90903 17.469 4.08515 17.548C4.26127 17.627 4.45784 17.6484 4.64684 17.6091L6.37017 17.2608C6.58945 17.2155 6.81773 17.252 7.01194 17.3634C7.20614 17.4749 7.35284 17.6536 7.42434 17.8658L7.9835 19.5433C8.04728 19.733 8.17141 19.8967 8.33694 20.0092C8.50246 20.1218 8.70027 20.177 8.90017 20.1666H12.5668C12.759 20.1671 12.9465 20.1072 13.1027 19.9953C13.259 19.8835 13.3762 19.7253 13.4377 19.5433L13.9968 17.8658C14.0683 17.6536 14.215 17.4749 14.4092 17.3634C14.6034 17.252 14.8317 17.2155 15.051 17.2608L16.7743 17.6091C16.9633 17.6484 17.1599 17.627 17.336 17.548C17.5121 17.469 17.6588 17.3364 17.7552 17.1691L19.5885 13.9974C19.6858 13.83 19.7276 13.636 19.7078 13.4433C19.6881 13.2506 19.6078 13.0692 19.4785 12.9249L18.241 11.6049ZM16.8752 12.8333L17.6085 13.6583L16.4352 15.6933L15.3535 15.4733C14.6933 15.3383 14.0065 15.4505 13.4235 15.7884C12.8406 16.1264 12.402 16.6666 12.191 17.3066L11.8427 18.3333H9.496L9.166 17.2883C8.95504 16.6483 8.51643 16.1081 7.93346 15.7701C7.35048 15.4321 6.6637 15.32 6.0035 15.4549L4.92184 15.6749L3.73017 13.6491L4.4635 12.8241C4.91446 12.3199 5.16377 11.6672 5.16377 10.9908C5.16377 10.3143 4.91446 9.66163 4.4635 9.15744L3.73017 8.33244L4.9035 6.31578L5.98517 6.53578C6.64537 6.67073 7.33214 6.55859 7.91512 6.22063C8.4981 5.88267 8.9367 5.34242 9.14767 4.70244L9.496 3.66661H11.8427L12.191 4.71161C12.402 5.35159 12.8406 5.89183 13.4235 6.22979C14.0065 6.56775 14.6933 6.6799 15.3535 6.54494L16.4352 6.32494L17.6085 8.35994L16.8752 9.18495C16.4293 9.68797 16.1831 10.3369 16.1831 11.0091C16.1831 11.6813 16.4293 12.3302 16.8752 12.8333ZM10.6693 7.33328C9.94414 7.33328 9.23522 7.54832 8.63224 7.95122C8.02926 8.35412 7.5593 8.92678 7.28178 9.59677C7.00426 10.2668 6.93164 11.004 7.07312 11.7153C7.2146 12.4265 7.56382 13.0799 8.07661 13.5927C8.5894 14.1055 9.24274 14.4547 9.954 14.5962C10.6653 14.7376 11.4025 14.665 12.0725 14.3875C12.7425 14.11 13.3152 13.64 13.7181 13.037C14.121 12.4341 14.336 11.7251 14.336 10.9999C14.336 10.0275 13.9497 9.09485 13.2621 8.40722C12.5744 7.71959 11.6418 7.33328 10.6693 7.33328ZM10.6693 12.8333C10.3067 12.8333 9.95228 12.7258 9.65079 12.5243C9.3493 12.3229 9.11432 12.0365 8.97556 11.7015C8.8368 11.3665 8.80049 10.9979 8.87123 10.6423C8.94197 10.2866 9.11658 9.95998 9.37297 9.70358C9.62937 9.44719 9.95604 9.27258 10.3117 9.20184C10.6673 9.1311 11.0359 9.1674 11.3709 9.30617C11.7059 9.44493 11.9922 9.67991 12.1937 9.9814C12.3951 10.2829 12.5027 10.6373 12.5027 10.9999C12.5027 11.4862 12.3095 11.9525 11.9657 12.2963C11.6219 12.6401 11.1556 12.8333 10.6693 12.8333Z" fill="#222222"/>
</svg>
