<svg width="24" height="24" viewBox="0 0 24 24" fill="none" xmlns="http://www.w3.org/2000/svg">
<path d="M5.5 7.49952L2.5 7.99952C3.315 4.24252 5.682 3.00302 8 2.99952C9.4985 2.99702 10.976 3.51252 12 3.99952C13.024 3.51252 14.5 2.99952 16 2.99952C18.3055 2.99952 20.685 4.24252 21.5 7.99952L18.5 7.49952C18.7795 8.54952 19.394 10.3955 18.5 11.9995C17.01 10.663 13.565 8.64502 12 7.49952C10.435 8.64502 6.99 10.663 5.5 11.9995C4.606 10.396 5.2205 8.54952 5.5 7.49952Z" stroke="#999999" stroke-width="2" stroke-linecap="round" stroke-linejoin="round"/>
<path d="M12 7.5C11.6225 9.4445 11.0945 14.2665 12 18" stroke="#999999" stroke-width="2" stroke-linecap="round" stroke-linejoin="round"/>
<path d="M6 21H18C15.6065 18.7075 14.5 18.0025 12 18C9.5 17.9975 6.946 19.691 6 21Z" stroke="#999999" stroke-width="2" stroke-linecap="round" stroke-linejoin="round"/>
</svg>
